<?xml version="1.0" encoding="utf-8" ?>
<svg xmlns="http://www.w3.org/2000/svg" width="1024" height="1024">
	<path fill="#3E1F46" d="M0 0L1024 0L1024 1024L0 1024L0 0Z"/>
	<path fill="#E5B2CA" d="M686.18 232.849C690.572 245.069 693.799 253.902 700.916 265.01C710.487 276.741 720.529 284.865 733.985 291.818C749.448 299.807 766.467 303.548 782.239 310.713C801.834 319.616 824.838 338.01 822.354 362.091C821.888 366.606 820.51 370.596 818.639 374.704C824.439 376.118 830.131 377.543 835.683 379.783C854.328 387.306 872.296 401.835 882.808 419.061C891.718 433.663 893.698 450.874 889.587 467.366C885.742 482.789 876.86 495.729 865.301 506.421C876.806 513.335 889.599 526.12 892.898 539.556C894.169 544.73 894.271 550.063 894.298 555.362C899.283 557.64 903.142 560.373 905.201 565.715C906.423 568.883 906.548 571.61 906.393 574.934C905.222 584.167 902.622 593.365 900.537 602.439L887.31 658.386C885.037 668.915 882.678 679.426 880.233 689.917C878.903 695.537 876.97 701.495 876.214 707.191L850.879 818.58C847.329 834.603 843.021 850.557 840.568 866.79C832.578 870.98 824.483 874.266 816.085 877.505C807.08 880.926 797.703 883.11 788.363 885.401C778.255 887.839 768.089 890.035 757.875 891.988C748.465 893.522 739.009 894.535 729.527 895.508C719.694 896.233 709.855 896.869 700.01 897.416C690.165 897.594 680.317 897.604 670.471 897.445C660.181 896.892 649.899 896.207 639.626 895.39C630.027 894.501 620.442 893.66 610.901 892.252C600.517 890.868 590.321 888.098 580.002 886.325C570.147 883.79 560.454 880.771 550.757 877.695C544.036 875.024 536.838 872.524 531.212 867.857C524.944 848.283 521.404 827.21 516.745 807.174C508.478 771.619 499.789 736.097 492.32 700.367C482.843 658.948 473.397 617.623 464.647 576.039C464.252 574.453 463.928 572.838 463.939 571.197C463.977 565.322 468.023 561.166 471.888 557.254C479.516 532.553 485.59 524.337 502.798 505.301C493.738 498.029 485.761 488.164 481.708 477.197C475.562 460.566 477.134 440.594 484.519 424.627C496.647 398.404 521.593 385.156 547.488 375.658L548.756 374.584C548.473 374.199 548.394 374.115 548.142 373.632C544.03 365.742 543.485 355.138 545.88 346.676C554.805 315.138 606.024 308.548 631.511 294.144C656.66 279.931 678.239 261.538 686.18 232.849Z"/>
	<path fill="#E92D79" d="M471.888 557.254C478.559 554.134 485.319 552.46 492.562 554.974C498.191 556.928 502.714 561.297 505.298 566.622C505.8 567.657 506.226 568.732 506.644 569.803C509.536 563.578 512.542 557.862 519.466 555.393C523.625 553.91 528.065 554.419 531.95 556.439C538.247 559.711 541.863 565.417 544.489 571.743L544.923 573.672C548.398 567.362 552.513 561.454 559.845 559.35C564.555 558.045 569.59 558.676 573.833 561.101C579.635 564.341 583.288 569.87 586.985 575.183L587.378 571.44C589.201 565.206 591.876 559.825 597.834 556.56C601.296 554.664 605.118 554.059 608.937 555.171C615.016 556.941 619.259 561.864 622.083 567.295C622.837 568.745 623.477 570.246 623.894 571.83C627.136 565.753 630.504 561.006 637.2 558.43C642.657 556.335 648.73 556.541 654.032 559.001C659.51 561.553 663.606 565.946 665.742 571.568C666.279 570.123 666.818 568.665 667.45 567.257C669.411 562.888 673.5 559.478 677.967 557.888C682.988 556.1 688.893 556.554 693.678 558.849C698.86 561.336 701.465 565.142 703.203 570.418C703.473 570.224 703.776 570.068 704.014 569.835C704.939 568.928 705.653 567.35 706.482 566.297C710.238 561.528 714.334 558.548 720.401 557.571C726.145 556.633 732.024 558.04 736.721 561.476C740.554 564.307 742.756 567.851 744.501 572.208C744.416 573.546 744.355 574.819 743.992 576.119C742.095 607.583 741.241 639.072 739.836 670.555C739.171 684.485 738.611 698.421 738.156 712.359C737.914 719.187 737.265 726.235 737.503 733.052C741.137 731.976 745.169 731.505 748.891 730.724L772.196 725.702L772.372 725.104C781.089 721.036 790.567 718.285 799.481 714.609C802.149 713.509 805.883 710.755 808.719 710.845L809.246 708.098L809.27 708.935L809.969 709.544C815.534 708.934 840.128 694.651 846.675 691.448L846.876 690.636C846.941 690.591 847.012 690.554 847.072 690.502C853.971 684.61 861.474 679.421 868.466 673.61C873.86 669.126 879.26 663.329 885.008 659.426C885.736 658.931 886.486 658.671 887.31 658.386C885.037 668.915 882.678 679.426 880.233 689.917C878.903 695.537 876.97 701.495 876.214 707.191L850.879 818.58C847.329 834.603 843.021 850.557 840.568 866.79C832.578 870.98 824.483 874.266 816.085 877.505C807.08 880.926 797.703 883.11 788.363 885.401C778.255 887.839 768.089 890.035 757.875 891.988C748.465 893.522 739.009 894.535 729.527 895.508C719.694 896.233 709.855 896.869 700.01 897.416C690.165 897.594 680.317 897.604 670.471 897.445C660.181 896.892 649.899 896.207 639.626 895.39C630.027 894.501 620.442 893.66 610.901 892.252C600.517 890.868 590.321 888.098 580.002 886.325C570.147 883.79 560.454 880.771 550.757 877.695C544.036 875.024 536.838 872.524 531.212 867.857C524.944 848.283 521.404 827.21 516.745 807.174C508.478 771.619 499.789 736.097 492.32 700.367C482.843 658.948 473.397 617.623 464.647 576.039C464.252 574.453 463.928 572.838 463.939 571.197C463.977 565.322 468.023 561.166 471.888 557.254Z"/>
	<path fill="#D8246C" d="M846.876 690.636C846.941 690.591 847.012 690.554 847.072 690.502C853.971 684.61 861.474 679.421 868.466 673.61C873.86 669.126 879.26 663.329 885.008 659.426C885.736 658.931 886.486 658.671 887.31 658.386C885.037 668.915 882.678 679.426 880.233 689.917C878.903 695.537 876.97 701.495 876.214 707.191L850.879 818.58C847.329 834.603 843.021 850.557 840.568 866.79C832.578 870.98 824.483 874.266 816.085 877.505C807.08 880.926 797.703 883.11 788.363 885.401C778.255 887.839 768.089 890.035 757.875 891.988C748.465 893.522 739.009 894.535 729.527 895.508C719.694 896.233 709.855 896.869 700.01 897.416C690.165 897.594 680.317 897.604 670.471 897.445L668.853 816.511C668.477 815.526 668.585 815.504 667.678 814.813C663.189 814.151 638.49 809.978 636.336 810.342L635.769 811.395L635.555 808.472C633.866 784.956 633.568 761.222 632.929 737.652C633.054 736.078 632.99 734.696 633.758 733.289C645.066 733.906 656.305 736.899 667.661 737.735L667.674 733.126C668.451 734.445 668.235 736.059 668.235 737.544C679.212 738.406 690.947 738.749 701.931 737.855C713.546 736.173 725.404 734.69 737.102 733.74L737.503 733.052C741.137 731.976 745.169 731.505 748.891 730.724L772.196 725.702L772.372 725.104C781.089 721.036 790.567 718.285 799.481 714.609C802.149 713.509 805.883 710.755 808.719 710.845L809.246 708.098L809.27 708.935L809.969 709.544C815.534 708.934 840.128 694.651 846.675 691.448L846.876 690.636Z"/>
	<path fill="#C31E5F" d="M846.876 690.636C846.941 690.591 847.012 690.554 847.072 690.502C853.971 684.61 861.474 679.421 868.466 673.61C873.86 669.126 879.26 663.329 885.008 659.426C885.736 658.931 886.486 658.671 887.31 658.386C885.037 668.915 882.678 679.426 880.233 689.917C878.903 695.537 876.97 701.495 876.214 707.191L850.879 818.58C847.329 834.603 843.021 850.557 840.568 866.79C832.578 870.98 824.483 874.266 816.085 877.505C807.08 880.926 797.703 883.11 788.363 885.401C788.616 872.496 791.126 858.975 792.755 846.158C795.319 826.257 797.649 806.326 799.744 786.37L800.282 783.649C803.369 759.448 806.114 735.102 808.719 710.845L809.246 708.098L809.27 708.935L809.969 709.544C815.534 708.934 840.128 694.651 846.675 691.448L846.876 690.636Z"/>
	<path fill="#E5E4E4" d="M846.876 690.636C846.941 690.591 847.012 690.554 847.072 690.502C853.971 684.61 861.474 679.421 868.466 673.61C873.86 669.126 879.26 663.329 885.008 659.426C885.736 658.931 886.486 658.671 887.31 658.386C885.037 668.915 882.678 679.426 880.233 689.917C878.903 695.537 876.97 701.495 876.214 707.191C872.257 709.619 866.49 721.341 863.348 725.818C857.36 734.347 845.103 750.508 836.944 756.181L836.46 758.014C832.994 759.84 830.03 762.602 826.985 765.05C819.974 770.686 808.479 780.644 800.282 783.649C803.369 759.448 806.114 735.102 808.719 710.845L809.246 708.098L809.27 708.935L809.969 709.544C815.534 708.934 840.128 694.651 846.675 691.448L846.876 690.636Z"/>
	<path fill="#D8246C" d="M846.876 690.636C846.941 690.591 847.012 690.554 847.072 690.502C853.971 684.61 861.474 679.421 868.466 673.61C873.86 669.126 879.26 663.329 885.008 659.426C885.736 658.931 886.486 658.671 887.31 658.386C885.037 668.915 882.678 679.426 880.233 689.917C878.903 695.537 876.97 701.495 876.214 707.191C872.257 709.619 866.49 721.341 863.348 725.818C857.36 734.347 845.103 750.508 836.944 756.181C838.224 746.765 840.123 737.39 841.556 727.989C843.409 715.831 844.843 703.612 846.675 691.448L846.876 690.636Z"/>
	<path fill="#F8F8F8" d="M800.282 783.649C808.479 780.644 819.974 770.686 826.985 765.05C830.03 762.602 832.994 759.84 836.46 758.014C832.419 787.77 827.581 817.413 821.951 846.91C820.093 856.886 819.164 867.867 816.085 877.505C807.08 880.926 797.703 883.11 788.363 885.401C788.616 872.496 791.126 858.975 792.755 846.158C795.319 826.257 797.649 806.326 799.744 786.37L800.282 783.649Z"/>
	<path fill="#C31E5F" d="M765.859 801.087C772.931 798.361 779.697 794.938 786.455 791.527C790.194 789.64 794.949 786.512 798.999 785.61L799.744 786.37C797.649 806.326 795.319 826.257 792.755 846.158C791.126 858.975 788.616 872.496 788.363 885.401C778.255 887.839 768.089 890.035 757.875 891.988C748.465 893.522 739.009 894.535 729.527 895.508C719.694 896.233 709.855 896.869 700.01 897.416C690.165 897.594 680.317 897.604 670.471 897.445L668.853 816.511L668.96 815.019C679.568 815.419 690.052 815.462 700.658 815.052C711.555 813.718 722.348 812.908 733.186 810.95L733.396 810.618C737.155 809.172 741.781 808.706 745.736 807.764C752.589 806.132 759.098 803.991 765.609 801.32L765.859 801.087Z"/>
	<path fill="#C31E5F" d="M700.658 815.052C711.555 813.718 722.348 812.908 733.186 810.95C732.641 827.299 731.899 843.641 730.96 859.972C730.301 871.655 729.135 883.836 729.527 895.508C719.694 896.233 709.855 896.869 700.01 897.416C690.165 897.594 680.317 897.604 670.471 897.445L668.853 816.511L668.96 815.019C679.568 815.419 690.052 815.462 700.658 815.052Z"/>
	<path fill="#F8F8F8" d="M668.96 815.019C679.568 815.419 690.052 815.462 700.658 815.052C700.634 842.514 699.871 869.953 700.01 897.416C690.165 897.594 680.317 897.604 670.471 897.445L668.853 816.511L668.96 815.019Z"/>
	<path fill="#F8F8F8" d="M765.609 801.32C764.581 820.596 762.611 840.003 760.695 859.215C759.614 870.053 758.131 881.1 757.875 891.988C748.465 893.522 739.009 894.535 729.527 895.508C729.135 883.836 730.301 871.655 730.96 859.972C731.899 843.641 732.641 827.299 733.186 810.95L733.396 810.618C737.155 809.172 741.781 808.706 745.736 807.764C752.589 806.132 759.098 803.991 765.609 801.32Z"/>
	<path fill="#E5E4E4" d="M772.372 725.104C781.089 721.036 790.567 718.285 799.481 714.609C802.149 713.509 805.883 710.755 808.719 710.845C806.114 735.102 803.369 759.448 800.282 783.649L799.744 786.37L798.999 785.61C794.949 786.512 790.194 789.64 786.455 791.527C779.697 794.938 772.931 798.361 765.859 801.087L765.609 801.32C759.098 803.991 752.589 806.132 745.736 807.764C741.781 808.706 737.155 809.172 733.396 810.618C733.965 785.009 735.676 759.317 737.102 733.74L737.503 733.052C741.137 731.976 745.169 731.505 748.891 730.724L772.196 725.702L772.372 725.104Z"/>
	<path fill="#D8246C" d="M772.372 725.104C781.089 721.036 790.567 718.285 799.481 714.609C802.149 713.509 805.883 710.755 808.719 710.845C806.114 735.102 803.369 759.448 800.282 783.649L799.744 786.37L798.999 785.61C794.949 786.512 790.194 789.64 786.455 791.527C779.697 794.938 772.931 798.361 765.859 801.087C768.616 776.017 770.728 750.88 772.196 725.702L772.372 725.104Z"/>
	<path fill="#D8246C" d="M701.931 737.855C713.546 736.173 725.404 734.69 737.102 733.74C735.676 759.317 733.965 785.009 733.396 810.618L733.186 810.95C722.348 812.908 711.555 813.718 700.658 815.052C701.434 789.344 701.576 763.574 701.931 737.855Z"/>
	<path fill="#E5E4E4" d="M667.674 733.126C668.451 734.445 668.235 736.059 668.235 737.544C679.212 738.406 690.947 738.749 701.931 737.855C701.576 763.574 701.434 789.344 700.658 815.052C690.052 815.462 679.568 815.419 668.96 815.019C667.83 804.748 668.509 793.814 668.459 783.472C668.385 768.232 667.968 752.973 667.661 737.735L667.674 733.126Z"/>
	<path fill="#C31E5F" d="M492.32 700.367C496.412 703.282 508.422 725.533 512.567 731.516C516.133 736.661 520.35 741.309 524.578 745.912C526.477 747.978 528.729 751.095 531.212 752.324L531.619 754.431C536.135 757.422 540.142 761.815 544.192 765.439C550.827 771.377 559.244 777.682 567.193 781.734C568.121 781.306 567.773 781.65 568.2 780.666C568.404 781.897 568.389 783.777 568.783 784.881L569.536 784.282C573.742 785.475 578.222 788.762 582.265 790.734C589.454 794.227 596.8 797.386 604.28 800.202L604.43 800.692C614.194 803.613 625.392 808.054 635.555 808.472L635.769 811.395L636.336 810.342C638.49 809.978 663.189 814.151 667.678 814.813C668.585 815.504 668.477 815.526 668.853 816.511L670.471 897.445C660.181 896.892 649.899 896.207 639.626 895.39C630.027 894.501 620.442 893.66 610.901 892.252C600.517 890.868 590.321 888.098 580.002 886.325C570.147 883.79 560.454 880.771 550.757 877.695C544.036 875.024 536.838 872.524 531.212 867.857C524.944 848.283 521.404 827.21 516.745 807.174C508.478 771.619 499.789 736.097 492.32 700.367Z"/>
	<path fill="#F8F8F8" d="M492.32 700.367C496.412 703.282 508.422 725.533 512.567 731.516C516.133 736.661 520.35 741.309 524.578 745.912C526.477 747.978 528.729 751.095 531.212 752.324L531.619 754.431C536.135 757.422 540.142 761.815 544.192 765.439C550.827 771.377 559.244 777.682 567.193 781.734C568.121 781.306 567.773 781.65 568.2 780.666C568.404 781.897 568.389 783.777 568.783 784.881C569.887 798.872 581.283 882.432 580.002 886.325C570.147 883.79 560.454 880.771 550.757 877.695C544.036 875.024 536.838 872.524 531.212 867.857C524.944 848.283 521.404 827.21 516.745 807.174C508.478 771.619 499.789 736.097 492.32 700.367Z"/>
	<path fill="#C31E5F" d="M492.32 700.367C496.412 703.282 508.422 725.533 512.567 731.516C516.133 736.661 520.35 741.309 524.578 745.912C526.477 747.978 528.729 751.095 531.212 752.324L531.619 754.431C533.093 766.896 535.473 779.323 537.529 791.705C542.264 820.211 547.44 848.996 550.757 877.695C544.036 875.024 536.838 872.524 531.212 867.857C524.944 848.283 521.404 827.21 516.745 807.174C508.478 771.619 499.789 736.097 492.32 700.367Z"/>
	<path fill="#C31E5F" d="M635.769 811.395L636.336 810.342C638.49 809.978 663.189 814.151 667.678 814.813C668.585 815.504 668.477 815.526 668.853 816.511L670.471 897.445C660.181 896.892 649.899 896.207 639.626 895.39C638.652 867.404 637.176 839.364 635.769 811.395Z"/>
	<path fill="#F8F8F8" d="M604.43 800.692C614.194 803.613 625.392 808.054 635.555 808.472L635.769 811.395C637.176 839.364 638.652 867.404 639.626 895.39C630.027 894.501 620.442 893.66 610.901 892.252C610.384 876.182 608.766 860.113 607.537 844.082C606.429 829.626 605.743 815.131 604.43 800.692Z"/>
	<path fill="#E92D79" d="M665.742 571.568C666.279 570.123 666.818 568.665 667.45 567.257C669.411 562.888 673.5 559.478 677.967 557.888C682.988 556.1 688.893 556.554 693.678 558.849C698.86 561.336 701.465 565.142 703.203 570.418C703.473 570.224 703.776 570.068 704.014 569.835C704.939 568.928 705.653 567.35 706.482 566.297C710.238 561.528 714.334 558.548 720.401 557.571C726.145 556.633 732.024 558.04 736.721 561.476C740.554 564.307 742.756 567.851 744.501 572.208C744.416 573.546 744.355 574.819 743.992 576.119C742.095 607.583 741.241 639.072 739.836 670.555C739.171 684.485 738.611 698.421 738.156 712.359C737.914 719.187 737.265 726.235 737.503 733.052L737.102 733.74C725.404 734.69 713.546 736.173 701.931 737.855C690.947 738.749 679.212 738.406 668.235 737.544C668.235 736.059 668.451 734.445 667.674 733.126C667.264 690.769 666.561 648.415 665.564 606.067C665.382 597.854 666.742 580.761 664.895 574.009L665.742 571.568Z"/>
	<path fill="#F8F8F8" d="M665.742 571.568C666.279 570.123 666.818 568.665 667.45 567.257C669.411 562.888 673.5 559.478 677.967 557.888C682.988 556.1 688.893 556.554 693.678 558.849C698.86 561.336 701.465 565.142 703.203 570.418L704.427 573.797C703.429 579.379 703.857 585.567 703.781 591.235C703.619 602.579 703.527 613.924 703.503 625.269L702.588 679.86C702.374 699.16 702.551 718.572 701.931 737.855C690.947 738.749 679.212 738.406 668.235 737.544C668.235 736.059 668.451 734.445 667.674 733.126C667.264 690.769 666.561 648.415 665.564 606.067C665.382 597.854 666.742 580.761 664.895 574.009L665.742 571.568Z"/>
	<path fill="#E5B2CA" d="M703.203 570.418C703.473 570.224 703.776 570.068 704.014 569.835C704.939 568.928 705.653 567.35 706.482 566.297C710.238 561.528 714.334 558.548 720.401 557.571C726.145 556.633 732.024 558.04 736.721 561.476C740.554 564.307 742.756 567.851 744.501 572.208C744.416 573.546 744.355 574.819 743.992 576.119C741.545 570.683 738.622 565.466 733.34 562.287C729.102 559.736 723.986 559.166 719.218 560.379C711.893 562.243 708.177 567.795 704.427 573.797L703.203 570.418Z"/>
	<path fill="#E92D79" d="M587.378 571.44C589.201 565.206 591.876 559.825 597.834 556.56C601.296 554.664 605.118 554.059 608.937 555.171C615.016 556.941 619.259 561.864 622.083 567.295C622.837 568.745 623.477 570.246 623.894 571.83C627.136 565.753 630.504 561.006 637.2 558.43C642.657 556.335 648.73 556.541 654.032 559.001C659.51 561.553 663.606 565.946 665.742 571.568L664.895 574.009C666.742 580.761 665.382 597.854 665.564 606.067C666.561 648.415 667.264 690.769 667.674 733.126L667.661 737.735C656.305 736.899 645.066 733.906 633.758 733.289C632.99 734.696 633.054 736.078 632.929 737.652C632.584 735.841 632.609 733.9 632.518 732.06C621.145 731.474 609.163 727.864 598.318 724.513L598.085 724.218C596.64 689.041 593.193 653.658 590.326 618.559C589.151 604.169 587.422 589.605 586.985 575.183L587.378 571.44Z"/>
	<path fill="#F8F8F8" d="M587.378 571.44C589.201 565.206 591.876 559.825 597.834 556.56C601.296 554.664 605.118 554.059 608.937 555.171C615.016 556.941 619.259 561.864 622.083 567.295C622.837 568.745 623.477 570.246 623.894 571.83C624.154 574.025 624.196 576.578 624.784 578.69C625.71 589.5 625.642 600.396 626.301 611.23C628.802 651.484 630.874 691.762 632.518 732.06C621.145 731.474 609.163 727.864 598.318 724.513L598.085 724.218C596.64 689.041 593.193 653.658 590.326 618.559C589.151 604.169 587.422 589.605 586.985 575.183L587.378 571.44Z"/>
	<path fill="#E5B2CA" d="M623.894 571.83C627.136 565.753 630.504 561.006 637.2 558.43C642.657 556.335 648.73 556.541 654.032 559.001C659.51 561.553 663.606 565.946 665.742 571.568L664.895 574.009C660.913 567.813 657.313 561.934 649.549 560.254C644.586 559.18 638.852 560.154 634.605 562.963C630.318 565.798 625.676 572.975 624.825 578.217C624.8 578.373 624.798 578.532 624.784 578.69C624.196 576.578 624.154 574.025 623.894 571.83Z"/>
	<path fill="#D8246C" d="M521.76 688.127C528.244 692.538 552.381 709.773 558.795 709.09C558.934 708.045 559.069 707.007 559.172 705.958C559.348 707.542 559.361 709.386 559.738 710.917C565.237 711.916 570.946 715.037 576.215 717.086C583.365 719.872 590.667 722.253 598.085 724.218L598.318 724.513C609.163 727.864 621.145 731.474 632.518 732.06C632.609 733.9 632.584 735.841 632.929 737.652C633.568 761.222 633.866 784.956 635.555 808.472C625.392 808.054 614.194 803.613 604.43 800.692L604.28 800.202C596.8 797.386 589.454 794.227 582.265 790.734C578.222 788.762 573.742 785.475 569.536 784.282L568.783 784.881C568.389 783.777 568.404 781.897 568.2 780.666C567.773 781.65 568.121 781.306 567.193 781.734C559.244 777.682 550.827 771.377 544.192 765.439C540.142 761.815 536.135 757.422 531.619 754.431L531.212 752.324C527.92 730.966 524.563 709.554 521.76 688.127Z"/>
	<path fill="#E5E4E4" d="M598.318 724.513C609.163 727.864 621.145 731.474 632.518 732.06C632.609 733.9 632.584 735.841 632.929 737.652C633.568 761.222 633.866 784.956 635.555 808.472C625.392 808.054 614.194 803.613 604.43 800.692L604.28 800.202C602.456 774.988 599.701 749.74 598.318 724.513Z"/>
	<path fill="#E5E4E4" d="M521.76 688.127C528.244 692.538 552.381 709.773 558.795 709.09C558.934 708.045 559.069 707.007 559.172 705.958C559.348 707.542 559.361 709.386 559.738 710.917C562.398 734.154 566.375 757.339 568.2 780.666C567.773 781.65 568.121 781.306 567.193 781.734C559.244 777.682 550.827 771.377 544.192 765.439C540.142 761.815 536.135 757.422 531.619 754.431L531.212 752.324C527.92 730.966 524.563 709.554 521.76 688.127Z"/>
	<path fill="#E92D79" d="M471.888 557.254C478.559 554.134 485.319 552.46 492.562 554.974C498.191 556.928 502.714 561.297 505.298 566.622C505.8 567.657 506.226 568.732 506.644 569.803C506.549 571.719 506.418 573.636 506.473 575.554C508.137 594.384 511.637 613.222 514.032 631.993C515.561 644.466 517.2 656.926 518.947 669.371C519.802 675.552 520.324 682.067 521.76 688.127C524.563 709.554 527.92 730.966 531.212 752.324C528.729 751.095 526.477 747.978 524.578 745.912C520.35 741.309 516.133 736.661 512.567 731.516C508.422 725.533 496.412 703.282 492.32 700.367C482.843 658.948 473.397 617.623 464.647 576.039C464.252 574.453 463.928 572.838 463.939 571.197C463.977 565.322 468.023 561.166 471.888 557.254Z"/>
	<path fill="#FE6BAA" d="M471.888 557.254C478.559 554.134 485.319 552.46 492.562 554.974C498.191 556.928 502.714 561.297 505.298 566.622C505.8 567.657 506.226 568.732 506.644 569.803C506.549 571.719 506.418 573.636 506.473 575.554C505.376 569.867 500.658 564.371 495.939 561.161C491.486 558.132 486.214 556.815 480.893 557.911C476.192 558.879 471.109 561.998 468.475 566.078C466.492 569.151 466.335 572.954 464.647 576.039C464.252 574.453 463.928 572.838 463.939 571.197C463.977 565.322 468.023 561.166 471.888 557.254Z"/>
	<path fill="#F8F8F8" d="M506.644 569.803C509.536 563.578 512.542 557.862 519.466 555.393C523.625 553.91 528.065 554.419 531.95 556.439C538.247 559.711 541.863 565.417 544.489 571.743L544.923 573.672C546.073 591.213 548.877 608.843 550.739 626.343C553.559 652.844 555.753 679.539 559.172 705.958C559.069 707.007 558.934 708.045 558.795 709.09C552.381 709.773 528.244 692.538 521.76 688.127C520.324 682.067 519.802 675.552 518.947 669.371C517.2 656.926 515.561 644.466 514.032 631.993C511.637 613.222 508.137 594.384 506.473 575.554C506.418 573.636 506.549 571.719 506.644 569.803Z"/>
	<path fill="#F8F8F8" d="M863.491 571.449C865.068 565.76 868.422 560.661 873.475 557.489C880.077 553.345 887.035 553.677 894.298 555.362C899.283 557.64 903.142 560.373 905.201 565.715C906.423 568.883 906.548 571.61 906.393 574.934C905.222 584.167 902.622 593.365 900.537 602.439L887.31 658.386C886.486 658.671 885.736 658.931 885.008 659.426C879.26 663.329 873.86 669.126 868.466 673.61C861.474 679.421 853.971 684.61 847.072 690.502C847.012 690.554 846.941 690.591 846.876 690.636L846.675 691.448C840.128 694.651 815.534 708.934 809.969 709.544L809.27 708.935L809.246 708.098L808.719 710.845C805.883 710.755 802.149 713.509 799.481 714.609C790.567 718.285 781.089 721.036 772.372 725.104L772.196 725.702L748.891 730.724C745.169 731.505 741.137 731.976 737.503 733.052C737.265 726.235 737.914 719.187 738.156 712.359C738.611 698.421 739.171 684.485 739.836 670.555C741.241 639.072 742.095 607.583 743.992 576.119C744.355 574.819 744.416 573.546 744.501 572.208C744.877 570.743 745.365 569.319 746.064 567.974C748.805 562.696 753.292 558.863 759.008 557.132C764.408 555.497 770.269 555.857 775.174 558.77C779.529 561.357 782.21 565.196 783.555 570.018C783.598 572.933 783.722 575.878 783.62 578.79L783.697 578.285C784.545 573.019 787.502 567.993 791.922 564.936C796.686 561.642 802.845 560.854 808.424 562.115C816.39 563.916 820.432 568.904 824.45 575.485C824.729 573.289 825.191 571.199 825.708 569.05C828.586 563.087 832.752 558.024 839.16 555.669C843.634 554.026 848.468 554.163 852.721 556.374C858.831 559.55 861.464 564.721 863.359 570.992C863.404 571.144 863.447 571.297 863.491 571.449Z"/>
	<path fill="#F8F8F8" d="M863.491 571.449C865.068 565.76 868.422 560.661 873.475 557.489C880.077 553.345 887.035 553.677 894.298 555.362C899.283 557.64 903.142 560.373 905.201 565.715C906.423 568.883 906.548 571.61 906.393 574.934C905.222 584.167 902.622 593.365 900.537 602.439L887.31 658.386C886.486 658.671 885.736 658.931 885.008 659.426C879.26 663.329 873.86 669.126 868.466 673.61C861.474 679.421 853.971 684.61 847.072 690.502C847.012 690.554 846.941 690.591 846.876 690.636L846.675 691.448C840.128 694.651 815.534 708.934 809.969 709.544L809.27 708.935L809.246 708.098C810.873 690.785 813.326 673.471 815.343 656.192L824.45 575.485C824.729 573.289 825.191 571.199 825.708 569.05C828.586 563.087 832.752 558.024 839.16 555.669C843.634 554.026 848.468 554.163 852.721 556.374C858.831 559.55 861.464 564.721 863.359 570.992C863.404 571.144 863.447 571.297 863.491 571.449Z"/>
	<path fill="#E92D79" d="M863.491 571.449C865.068 565.76 868.422 560.661 873.475 557.489C880.077 553.345 887.035 553.677 894.298 555.362C899.283 557.64 903.142 560.373 905.201 565.715C906.423 568.883 906.548 571.61 906.393 574.934C905.222 584.167 902.622 593.365 900.537 602.439L887.31 658.386C886.486 658.671 885.736 658.931 885.008 659.426C879.26 663.329 873.86 669.126 868.466 673.61C861.474 679.421 853.971 684.61 847.072 690.502C847.012 690.554 846.941 690.591 846.876 690.636C849.735 674.475 851.669 658.158 853.97 641.913C855.603 630.381 857.611 618.903 859.283 607.377C860.89 596.306 860.958 584.214 864.356 573.514L863.491 571.449Z"/>
	<path fill="#FE6BAA" d="M863.491 571.449C865.068 565.76 868.422 560.661 873.475 557.489C880.077 553.345 887.035 553.677 894.298 555.362C899.283 557.64 903.142 560.373 905.201 565.715C906.423 568.883 906.548 571.61 906.393 574.934C904.71 574.266 899.778 566.85 897.595 564.965C893.787 561.677 889.237 560.256 884.241 560.844C875.416 561.883 869.599 566.767 864.356 573.514L863.491 571.449Z"/>
	<path fill="#E92D79" d="M783.62 578.79L783.697 578.285C784.545 573.019 787.502 567.993 791.922 564.936C796.686 561.642 802.845 560.854 808.424 562.115C816.39 563.916 820.432 568.904 824.45 575.485L815.343 656.192C813.326 673.471 810.873 690.785 809.246 708.098L808.719 710.845C805.883 710.755 802.149 713.509 799.481 714.609C790.567 718.285 781.089 721.036 772.372 725.104C772.8 711.769 774.511 698.278 775.474 684.946L783.62 578.79Z"/>
	<path fill="#F8F8F8" d="M686.18 232.849C690.572 245.069 693.799 253.902 700.916 265.01L700.407 265.56C693.301 256.864 689.842 246.146 686.418 235.658C683.501 244.199 682.49 247.739 682.978 256.924C683.306 266.183 681.125 274.684 679.105 283.65C677.204 292.092 674.691 300.519 673.242 309.037C668.926 334.43 674.622 355.849 693.691 373.688C712.011 390.826 734.92 397.349 759.145 400.613C751.42 401.718 743.646 402.017 735.856 402.324C707.348 403.446 678.326 400.776 654.606 383.027C642.966 374.317 632.66 360.923 630.523 346.213C628.907 335.094 631.793 325.514 638.509 316.644C651.401 299.617 670.347 287.375 679.872 267.905C680.662 266.29 681.858 264.293 681.681 262.439C681.663 262.252 681.6 262.072 681.559 261.889L680.995 261.542C675.896 273.821 664.947 285.406 655.288 294.492C648.144 301.213 640.387 307.243 633.488 314.236C617.984 329.951 606.776 350.875 615.777 372.921C620.633 384.816 631.524 393.582 643.203 398.407C661.529 405.978 683.2 406.761 702.635 404.128C707.912 411.689 714.421 418.532 720.853 425.118C749.862 454.821 782.101 470.844 822.948 478.088C837.158 480.609 860.144 484.625 873.407 479.041C853.268 499.26 827.883 501.934 800.645 501.985C756.265 501.648 713.811 483.812 682.506 452.352C670.471 440.308 661.737 428.459 654.999 412.791C653.938 410.325 652.037 407.146 651.84 404.558C652.717 404.141 653.587 403.723 654.451 403.28C650.942 401.219 645.923 402.512 641.979 402.335L641.123 404.637C625.288 406.175 594.363 406.149 580.817 398.568C577.745 395.64 564.479 390.569 558.588 385.823C555.399 383.254 551.663 375.949 548.756 374.584C548.473 374.199 548.394 374.115 548.142 373.632C544.03 365.742 543.485 355.138 545.88 346.676C554.805 315.138 606.024 308.548 631.511 294.144C656.66 279.931 678.239 261.538 686.18 232.849Z"/>
	<path fill="#F2D6E3" d="M686.18 232.849C690.572 245.069 693.799 253.902 700.916 265.01L700.407 265.56C693.301 256.864 689.842 246.146 686.418 235.658C683.501 244.199 682.49 247.739 682.978 256.924L681.888 257.3C681.776 257.601 681.672 257.905 681.553 258.203C680.61 260.569 678.87 262.827 677.393 264.893C669.657 275.709 659.571 281.726 648.712 288.822C638.804 295.296 628.905 301.361 617.797 305.651C599.036 312.895 567.984 319.928 558.969 340.332C556.19 346.622 556.154 353.373 558.717 359.733C564.831 374.904 580.645 386.087 595.267 391.996C605.612 396.201 616.43 399.133 627.483 400.729C632.164 401.363 637.429 401.275 641.979 402.335L641.123 404.637C625.288 406.175 594.363 406.149 580.817 398.568C577.745 395.64 564.479 390.569 558.588 385.823C555.399 383.254 551.663 375.949 548.756 374.584C548.473 374.199 548.394 374.115 548.142 373.632C544.03 365.742 543.485 355.138 545.88 346.676C554.805 315.138 606.024 308.548 631.511 294.144C656.66 279.931 678.239 261.538 686.18 232.849Z"/>
	<path fill="#88308C" d="M502.798 505.301C508.376 509.643 513.993 513.886 520.091 517.489C530.27 523.502 552.159 533.251 564.12 531.513C567.579 531.01 570.546 529.248 572.594 526.407C573.359 525.346 573.817 524.127 574.299 522.923C576.257 527.945 578.749 531.544 583.917 533.698C589.04 535.833 595.577 535.92 600.678 533.688C606.504 531.139 609.046 526.652 611.371 521.081C613.217 525.779 615.687 529.626 620.011 532.405C624.598 535.352 630.713 536.455 636.021 535.127C643.684 533.21 646.617 527.733 650.233 521.392C650.425 521.881 650.624 522.368 650.828 522.852C653.023 528.024 656.893 532.606 662.287 534.581C666.436 536.1 671.093 535.661 675.057 533.798C680.909 531.048 683.699 526.21 685.865 520.425C687.982 525.964 690.988 530.903 696.477 533.633C700.662 535.714 705.809 536.162 710.24 534.607C716.342 532.465 719.593 527.305 722.33 521.834C724.593 526.86 727.665 531.293 732.773 533.794C736.663 535.708 741.161 535.97 745.247 534.521C751.681 532.177 754.639 526.4 757.385 520.631C759.843 524.818 762.296 528.5 766.269 531.436C770.932 534.882 776.517 536.245 782.233 535.194C790.553 533.663 795.433 528.245 799.895 521.582C803.197 525.636 805.417 530.447 810.89 531.869C813.829 532.632 816.691 532.082 819.249 530.48C823.686 527.699 825.388 523.426 826.438 518.568C828.681 519.454 830.862 520.081 833.267 520.356C845.555 521.759 856.271 513.606 865.301 506.421C876.806 513.335 889.599 526.12 892.898 539.556C894.169 544.73 894.271 550.063 894.298 555.362C887.035 553.677 880.077 553.345 873.475 557.489C868.422 560.661 865.068 565.76 863.491 571.449C863.447 571.297 863.404 571.144 863.359 570.992C861.464 564.721 858.831 559.55 852.721 556.374C848.468 554.163 843.634 554.026 839.16 555.669C832.752 558.024 828.586 563.087 825.708 569.05C825.191 571.199 824.729 573.289 824.45 575.485C820.432 568.904 816.39 563.916 808.424 562.115C802.845 560.854 796.686 561.642 791.922 564.936C787.502 567.993 784.545 573.019 783.697 578.285L783.62 578.79C783.722 575.878 783.598 572.933 783.555 570.018C782.21 565.196 779.529 561.357 775.174 558.77C770.269 555.857 764.408 555.497 759.008 557.132C753.292 558.863 748.805 562.696 746.064 567.974C745.365 569.319 744.877 570.743 744.501 572.208C742.756 567.851 740.554 564.307 736.721 561.476C732.024 558.04 726.145 556.633 720.401 557.571C714.334 558.548 710.238 561.528 706.482 566.297C705.653 567.35 704.939 568.928 704.014 569.835C703.776 570.068 703.473 570.224 703.203 570.418C701.465 565.142 698.86 561.336 693.678 558.849C688.893 556.554 682.988 556.1 677.967 557.888C673.5 559.478 669.411 562.888 667.45 567.257C666.818 568.665 666.279 570.123 665.742 571.568C663.606 565.946 659.51 561.553 654.032 559.001C648.73 556.541 642.657 556.335 637.2 558.43C630.504 561.006 627.136 565.753 623.894 571.83C623.477 570.246 622.837 568.745 622.083 567.295C619.259 561.864 615.016 556.941 608.937 555.171C605.118 554.059 601.296 554.664 597.834 556.56C591.876 559.825 589.201 565.206 587.378 571.44L586.985 575.183C583.288 569.87 579.635 564.341 573.833 561.101C569.59 558.676 564.555 558.045 559.845 559.35C552.513 561.454 548.398 567.362 544.923 573.672L544.489 571.743C541.863 565.417 538.247 559.711 531.95 556.439C528.065 554.419 523.625 553.91 519.466 555.393C512.542 557.862 509.536 563.578 506.644 569.803C506.226 568.732 505.8 567.657 505.298 566.622C502.714 561.297 498.191 556.928 492.562 554.974C485.319 552.46 478.559 554.134 471.888 557.254C479.516 532.553 485.59 524.337 502.798 505.301Z"/>
	<path fill="#FE6BAA" d="M783.555 570.018C785.842 564.006 789.389 558.999 795.37 556.219C801.025 553.591 807.889 553.645 813.622 556.014C819.988 558.644 823.132 562.957 825.708 569.05C825.191 571.199 824.729 573.289 824.45 575.485C820.432 568.904 816.39 563.916 808.424 562.115C802.845 560.854 796.686 561.642 791.922 564.936C787.502 567.993 784.545 573.019 783.697 578.285L783.62 578.79C783.722 575.878 783.598 572.933 783.555 570.018Z"/>
	<defs>
		<linearGradient id="gradient_0" gradientUnits="userSpaceOnUse" x1="577.98004" y1="559.17255" x2="560.07739" y2="573.05853">
			<stop offset="0" stop-color="#FF7EB5"/>
			<stop offset="1" stop-color="#FFA3C1"/>
		</linearGradient>
	</defs>
	<path fill="url(#gradient_0)" d="M544.489 571.743C546.298 565.604 550.447 560.421 556.042 557.313C560.745 554.715 565.996 553.931 571.141 555.629C578.421 558.033 583.925 564.109 587.128 570.88C587.216 571.065 587.295 571.254 587.378 571.44L586.985 575.183C583.288 569.87 579.635 564.341 573.833 561.101C569.59 558.676 564.555 558.045 559.845 559.35C552.513 561.454 548.398 567.362 544.923 573.672L544.489 571.743Z"/>
	<path fill="#F8F8F8" d="M502.798 505.301C493.738 498.029 485.761 488.164 481.708 477.197C475.562 460.566 477.134 440.594 484.519 424.627C496.647 398.404 521.593 385.156 547.488 375.658L548.482 377.058C553.773 385.996 559.482 390.199 568.52 395.124C553.709 417.495 543.855 436.188 549.493 463.876C553.118 481.679 563.447 498.018 578.742 508.016C586.589 513.145 594.551 516.707 603.87 517.919C594.326 519.925 584.62 522.988 574.802 521.317L574.299 522.923C573.817 524.127 573.359 525.346 572.594 526.407C570.546 529.248 567.579 531.01 564.12 531.513C552.159 533.251 530.27 523.502 520.091 517.489C513.993 513.886 508.376 509.643 502.798 505.301Z"/>
	<path fill="#F2D6E3" d="M502.798 505.301C493.738 498.029 485.761 488.164 481.708 477.197C475.562 460.566 477.134 440.594 484.519 424.627C496.647 398.404 521.593 385.156 547.488 375.658L548.482 377.058C528.287 391.172 499.353 403.07 494.42 430.118C491 448.875 493.677 464.651 504.641 480.38C523.148 506.932 546.043 512.368 574.802 521.317L574.299 522.923C573.817 524.127 573.359 525.346 572.594 526.407C570.546 529.248 567.579 531.01 564.12 531.513C552.159 533.251 530.27 523.502 520.091 517.489C513.993 513.886 508.376 509.643 502.798 505.301Z"/>
	<path fill="#F8F8F8" d="M727.522 516.944C686.049 517.522 654.02 518.445 617.065 495.741C597.429 483.677 579.559 464.006 574.253 440.946C571.9 430.72 571.859 407.344 577.383 398.591C578.804 397.834 579.284 398.218 580.817 398.568C594.363 406.149 625.288 406.175 641.123 404.637C635.744 422.039 633.904 436.157 641.388 453.336C653.494 481.122 679.456 499.489 706.889 510.271C713.326 512.801 720.254 514.012 726.587 516.559L727.522 516.944Z"/>
	<path fill="#F8F8F8" d="M770.858 401.717C771.499 401.673 771.489 401.663 772.249 401.679C778.7 401.821 785.627 403.223 791.977 404.444C815.185 408.906 846.451 417.35 862.872 434.911C867.422 439.777 871.705 447.37 870.923 454.28C870.806 455.312 870.339 456.066 869.496 456.667C861.332 462.483 828.596 458.056 818 456.639C786.986 451.336 756.423 440.073 731.225 420.844C724.702 415.865 718.742 410.149 712.741 404.566C732.252 404.756 751.477 403.948 770.858 401.717Z"/>
	<path fill="#F8F8F8" d="M685.824 254.102C687.884 255.584 687.715 257.56 688.029 259.956C689.641 272.252 691.637 284.18 697.456 295.336C701.978 304.005 708.853 311.078 715.936 317.695C736.017 336.813 760.173 351.128 786.585 359.564C789.173 360.384 791.804 361.269 794.471 361.801C800.125 362.929 807.331 362.835 812.332 365.828C814.017 366.838 815.285 368.538 816.519 370.036C814.299 374.855 811.907 377.031 807.393 379.584C796.866 383.53 785.021 383.872 773.96 382.534C746.034 379.154 709.789 357.865 692.471 335.713C675.852 314.453 679.804 297.402 683.725 272.91C684.725 266.669 685.045 260.368 685.824 254.102Z"/>
	<path fill="#F8F8F8" d="M688.653 256.862C691.238 258.945 694.485 267.978 696.506 271.257C700.513 277.753 706.343 283.81 712.439 288.374C718.741 293.093 725.54 297.908 732.658 301.276C751.463 310.177 771.88 314.233 789.431 326.032C796.092 330.509 802.856 336.085 804.422 344.299C779.692 345.606 751.464 335.645 731.03 321.645C717.806 312.584 703.129 299.907 696.45 285.124C692.376 276.108 690.437 266.53 688.653 256.862Z"/>
	<path fill="#F8F8F8" d="M223.093 119.758C224.039 111.344 222.557 96.6997 225.548 89.4166C226.383 87.384 227.694 85.4825 229.821 84.6745C231.149 84.1697 232.765 84.4162 234.027 84.9862C236.767 86.2247 238.54 88.861 239.302 91.6998C240.781 97.2112 240.501 119.242 240.699 126.221C241.652 160.223 242.435 194.229 243.048 228.238C243.344 248.055 242.904 268.108 243.895 287.889C243.99 289.8 244.15 291.85 244.927 293.618C245.891 295.809 247.624 298.019 249.978 298.79C252.111 299.488 254.367 298.9 256.241 297.785C257.694 296.921 259.333 295.608 259.676 293.865C261.002 287.133 260.666 279.805 260.809 272.96L261.394 236.779C261.85 196.531 262.734 156.288 264.046 116.058C264.309 109.032 263.531 94.7042 265.56 88.4499C266.061 86.9053 267.135 85.6388 268.646 85.0145C270.431 84.2771 273.042 84.291 274.773 85.1679C276.992 86.2913 277.973 88.8194 278.378 91.1276C279.225 95.9438 279.026 101.42 279.245 106.332L280.567 132.691C282.6 174.579 283.402 216.637 284.536 258.564C284.71 264.987 284.259 290.317 286.213 294.693C287.041 296.535 288.594 297.952 290.503 298.61C292.566 299.336 295.298 299.333 297.227 298.212C299.422 296.935 300.318 294.375 300.712 292.001C301.66 286.29 301.266 279.81 301.412 274.004C301.665 264.603 302.019 255.204 302.474 245.811C304.18 205.348 305.678 164.877 306.97 124.399C307.261 116.196 306.753 92.9154 309.074 86.9009C309.476 85.8569 310.797 84.8368 311.853 84.5462C313.493 84.0945 315.072 84.6543 316.354 85.6601C318.596 87.4197 319.448 93.1964 319.812 95.9923C321.774 111.025 322.727 126.212 324.237 141.295C327.455 170.633 330.37 200.003 332.981 229.4L336.96 274.596C338.095 288.169 339.749 302.11 338.257 315.701C336.597 330.821 331.365 345.2 321.94 357.213C308.631 374.177 288.013 387.5 266.405 390.179C267.629 428.016 270.944 465.816 272.941 503.621L285.933 748.416C288.184 783.544 290.2 818.688 291.98 853.844C292.571 866.214 293.51 878.697 293.705 891.074C293.84 899.606 292.115 906.655 285.856 912.907C276.786 921.967 262.527 924.427 250.213 924.213C238.293 924.007 225.495 920.937 217.017 912.014C213.128 907.921 209.932 902.756 209.541 897.021C209.126 890.945 209.888 884.615 210.244 878.533L211.873 849.483C213.679 813.827 215.712 778.183 217.974 742.553C223.116 658.364 227.596 574.136 231.415 489.877C232.979 456.661 235.725 423.459 236.527 390.211C226.764 388.721 217.316 385.623 208.567 381.043C189.953 371.382 175.556 353.508 169.434 333.514C166.236 323.07 165.316 312.357 165.479 301.483C165.696 286.998 167.406 272.402 168.627 257.967L173.954 194.52L179.483 130.724C180.516 118.665 181.224 106.423 182.796 94.4228C183.092 92.1704 183.413 89.7663 184.558 87.7694C185.475 86.169 186.797 84.9496 188.64 84.5658C190.475 84.1839 192.427 84.9129 193.901 85.994C195.862 87.433 196.374 89.1732 196.683 91.4974C196.709 91.6886 196.73 91.8803 196.753 92.0717C198.785 134.701 200.45 177.347 201.748 220.005L203.277 264.846C203.521 273.168 203.171 281.953 204.135 290.202C204.43 292.727 204.881 295.201 206.882 296.962C208.392 298.29 210.373 298.859 212.363 298.651C214.517 298.426 216.795 297.173 218.098 295.426C219.415 293.659 219.477 290.843 219.561 288.729C220.007 277.502 219.707 266.149 219.884 254.9L221.375 186.297L222.727 139.67C222.884 133.139 223.457 126.269 223.093 119.758Z"/>
	<path fill="#E5E4E4" d="M248.442 391.177C249.53 392.076 249.245 395.012 249.293 396.4C249.877 413.354 249.17 430.398 248.861 447.358L247.782 525.5C246.908 614.429 246.577 703.364 246.788 792.297L246.791 863.959L246.803 887.967C246.82 892.445 246.576 897.221 247.192 901.661C247.677 905.156 249.259 908.141 250.755 911.294C243.457 910.085 236.606 908.95 230.012 905.462C226.995 903.552 224.08 901.553 222.056 898.523C219.749 895.067 219.902 891.016 220.031 887.025C220.791 863.549 222.638 840.122 223.603 816.654C224.929 784.39 225.468 752.06 227.361 719.823C228.3 703.818 229.925 687.888 231.042 671.901C232.384 650.535 233.486 629.155 234.349 607.764C236.164 555.164 238.704 502.592 241.967 450.063C242.597 437.378 243.103 424.688 243.485 411.993C243.682 405.559 243.217 398.394 244.311 392.095C245.399 391.129 247.055 391.275 248.442 391.177Z"/>
	<path fill="#E5E4E4" d="M256.028 390.921C257.279 390.914 258.902 390.647 259.806 391.526L275.73 717.252L281.359 830.351C282.468 851.636 284.862 874.347 284.337 895.527C281.68 899.965 278.447 902.583 274.031 905.098C267.209 908.243 260.169 910.08 252.784 911.369C254.694 909.029 256.832 906.534 257.244 903.455C257.881 898.704 257.52 893.557 257.583 888.761C257.78 878.644 257.908 868.525 257.967 858.406L257.969 754.871L256.028 390.921Z"/>
	<path fill="#E5E4E4" d="M329.337 309.641C329.246 317.185 324.885 331.149 321.844 338.157C315.389 353.035 297.308 368.33 282.334 374.122C262.269 381.884 241.5 383.004 221.6 374.156C204.239 366.438 187.945 353.688 180.943 335.589C178.194 328.002 176.603 320.214 175.922 312.173C176.675 315.016 177.68 318.088 179.019 320.708C185.87 334.113 202.249 342.421 215.947 346.909C242.974 355.764 274.704 354.601 300.078 341.447C314.585 333.927 324.309 325.368 329.337 309.641Z"/>
</svg>
